<svg width="1000" height="500" viewBox="0 0 1000 500" fill="none" xmlns="http://www.w3.org/2000/svg">
<path fill-rule="evenodd" clip-rule="evenodd" d="M221.828 158.947L252.252 189.311C252.428 189.486 252.428 189.769 252.252 189.944L177.966 264.081C177.683 264.364 177.199 264.164 177.199 263.765V184.667C177.199 184.548 177.246 184.434 177.331 184.35L202.785 158.947C208.044 153.699 216.569 153.699 221.828 158.947ZM227.414 253.374C227.238 253.199 227.238 252.916 227.414 252.741L271.295 208.948C271.47 208.773 271.754 208.773 271.929 208.948L303.62 240.574C308.878 245.822 308.878 254.33 303.62 259.578L268.942 294.186C268.766 294.361 268.482 294.361 268.307 294.186L227.414 253.374ZM208.372 272.378C208.196 272.203 207.912 272.203 207.737 272.378L171.096 308.945C170.92 309.12 170.92 309.404 171.096 309.579L202.785 341.205C208.044 346.453 216.569 346.453 221.828 341.205L249.265 313.823C249.44 313.648 249.44 313.364 249.265 313.19L208.372 272.378ZM150.269 212.438C150.269 212.04 149.786 211.839 149.503 212.122L120.994 240.574C115.735 245.822 115.735 254.33 120.994 259.578L149.503 288.03C149.786 288.312 150.269 288.112 150.269 287.713V212.438Z" fill="#B5B5B5"/>
<path fill-rule="evenodd" clip-rule="evenodd" d="M485.147 301.05V218.805H506.606V301.05H485.147ZM483.507 197.686C483.507 194.563 484.575 191.96 486.711 189.878C488.847 187.746 491.902 186.68 495.876 186.68C499.85 186.68 502.905 187.746 505.041 189.878C507.177 192.009 508.246 194.637 508.246 197.76C508.246 200.933 507.177 203.585 505.041 205.717C502.905 207.799 499.85 208.84 495.876 208.84C491.902 208.84 488.847 207.774 486.711 205.643C484.575 203.511 483.507 200.859 483.507 197.686ZM530.897 186.829V301.05H552.357V186.829H530.897ZM675.944 192.778V301.05H756.865V284.69H698.075V253.458H748.669V237.098H698.075V209.212H756.046V192.778H675.944ZM792.788 259.002L762.23 301.05H784.211L803.843 273.621L822.884 301.05H848.444L817.75 258.685L846.88 218.805H824.896L806.798 244.242L789.278 218.805H763.795L792.788 259.002ZM565.478 261.117V258.738C565.478 246.145 569.65 235.983 577.995 228.249C586.341 220.466 597.369 216.574 611.079 216.574C624.839 216.574 635.892 220.466 644.238 228.249C652.583 235.983 656.755 246.145 656.755 258.738V261.117C656.755 273.709 652.583 283.897 644.238 291.68C635.892 299.414 624.864 303.281 611.154 303.281C597.394 303.281 586.341 299.414 577.995 291.68C569.65 283.897 565.478 273.709 565.478 261.117ZM587.459 258.217V261.638C587.459 268.925 589.47 275.023 593.494 279.931C597.518 284.789 603.404 287.219 611.154 287.219C618.854 287.219 624.715 284.789 628.739 279.931C632.763 275.023 634.774 268.901 634.774 261.564V258.217C634.774 250.93 632.763 244.857 628.739 239.998C624.715 235.091 618.854 232.637 611.154 232.637C603.404 232.637 597.518 235.091 593.494 239.998C589.47 244.857 587.459 250.93 587.459 258.217ZM377.922 192.778V301.05H400.053V266.843L411.615 254.946L447.815 301.05H475.534L426.227 239.91L472.032 192.778H447.219L400.201 242.526V192.778H377.922Z" fill="#B5B5B5"/>
</svg>
