<svg width="1000" height="500" viewBox="0 0 1000 500" fill="none" xmlns="http://www.w3.org/2000/svg">
<path d="M404.84 179.8C405.378 179.8 405.853 180.073 406.134 180.488C406.19 180.571 406.238 180.66 406.277 180.753C406.356 180.94 406.4 181.144 406.4 181.36V318.64C406.4 319.501 405.701 320.2 404.84 320.2H267.56C267.344 320.2 267.14 320.156 266.953 320.077C266.86 320.038 266.771 319.99 266.688 319.934C266.273 319.653 266 319.178 266 318.64V181.36C266 181.144 266.044 180.94 266.123 180.753C266.163 180.66 266.21 180.571 266.267 180.488C266.547 180.073 267.021 179.8 267.56 179.8H404.84ZM475.04 179.8C475.901 179.8 476.599 180.498 476.6 181.36V226.6H521.84C522.701 226.6 523.4 227.299 523.4 228.16V271.84C523.4 272.702 522.701 273.4 521.84 273.4H476.6V318.64C476.6 319.501 475.902 320.2 475.04 320.2H431.36C430.499 320.2 429.8 319.501 429.8 318.64V181.36C429.8 180.498 430.499 179.8 431.36 179.8H475.04ZM568.64 273.4C569.501 273.4 570.2 274.099 570.2 274.96V318.64C570.2 319.501 569.501 320.2 568.64 320.2H524.96C524.098 320.2 523.4 319.501 523.4 318.64V274.96C523.4 274.099 524.098 273.4 524.96 273.4H568.64ZM638.84 273.4C639.701 273.4 640.4 274.099 640.4 274.96V318.64C640.4 319.501 639.701 320.2 638.84 320.2H595.16C594.299 320.2 593.6 319.501 593.6 318.64V274.96C593.6 274.099 594.299 273.4 595.16 273.4H638.84ZM732.44 273.4C733.302 273.4 734 274.099 734 274.96V318.64C734 319.501 733.302 320.2 732.44 320.2H688.76C687.898 320.2 687.2 319.501 687.2 318.64V274.96C687.2 274.099 687.898 273.4 688.76 273.4H732.44ZM312.8 273.4H359.6V226.6H312.8V273.4ZM685.64 226.6C686.501 226.6 687.2 227.299 687.2 228.16V271.84C687.2 272.702 686.501 273.4 685.64 273.4H641.96C641.098 273.4 640.4 272.702 640.4 271.84V228.16C640.4 227.299 641.098 226.6 641.96 226.6H685.64ZM568.64 179.8C569.501 179.8 570.2 180.498 570.2 181.36V225.04C570.2 225.902 569.501 226.6 568.64 226.6H524.96C524.099 226.6 523.401 225.902 523.4 225.04V181.36C523.401 180.498 524.099 179.8 524.96 179.8H568.64ZM638.84 179.8C639.701 179.8 640.4 180.498 640.4 181.36V225.04C640.4 225.902 639.701 226.6 638.84 226.6H595.16C594.299 226.6 593.6 225.902 593.6 225.04V181.36C593.6 180.498 594.299 179.8 595.16 179.8H638.84ZM732.44 179.8C733.302 179.8 734 180.498 734 181.36V225.04C734 225.902 733.302 226.6 732.44 226.6H688.76C687.898 226.6 687.2 225.902 687.2 225.04V181.36C687.2 180.498 687.898 179.8 688.76 179.8H732.44Z" fill="#B5B5B5"/>
</svg>
