<?xml version="1.0" encoding="UTF-8"?>
<svg version="1.1" xmlns="http://www.w3.org/2000/svg" width="50" height="50">
<path d="M0 0 C0.4144989 7.76801636 -0.06450052 12.58847357 -5.3125 18.6875 C-11.41152643 23.93549948 -16.23198364 24.4144989 -24 24 C-24.4144989 16.23198364 -23.93549948 11.41152643 -18.6875 5.3125 C-12.58847357 0.06450052 -7.76801636 -0.4144989 0 0 Z " fill="#7759F3" transform="translate(24,26)"/>
<path d="M0 0 C7.76801636 -0.4144989 12.58847357 0.06450052 18.6875 5.3125 C23.93549948 11.41152643 24.4144989 16.23198364 24 24 C16.23198364 24.4144989 11.41152643 23.93549948 5.3125 18.6875 C0.06450052 12.58847357 -0.4144989 7.76801636 0 0 Z " fill="#7759F3" transform="translate(26,26)"/>
<path d="M0 0 C0.4144989 7.76801636 -0.06450052 12.58847357 -5.3125 18.6875 C-11.41152643 23.93549948 -16.23198364 24.4144989 -24 24 C-24.4144989 16.23198364 -23.93549948 11.41152643 -18.6875 5.3125 C-12.58847357 0.06450052 -7.76801636 -0.4144989 0 0 Z " fill="#7759F3" transform="translate(50,0)"/>
<path d="M0 0 C7.76801636 -0.4144989 12.58847357 0.06450052 18.6875 5.3125 C23.93549948 11.41152643 24.4144989 16.23198364 24 24 C16.23198364 24.4144989 11.41152643 23.93549948 5.3125 18.6875 C0.06450052 12.58847357 -0.4144989 7.76801636 0 0 Z " fill="#7759F3" transform="translate(0,0)"/>
</svg>
